                          Another Fine Release Brought to you from - IMAGiNE                  
                                               

********************************************************************************************************************                                
                               Season Of The Witch CAM XViD - IMAGiNE
********************************************************************************************************************

Ripper ...........:IMAGiNE                                       IMDB Rating.......:5.9/10                            
Video Codec.......:XVID                                          Release Date......:11/01/11
Audio Codec.......:MP3                                           Theatre Date......:07/01/11
Audio Bitrate.....:128                                           Runtime...........:1h 24mn
Subtitles.........:NIL                                           Language..........:ENGLISH
Resolution........:720 x 416                                     IMDb URL..........:http://www.imdb.com/title/tt0479997/


DETAILS:

Video
ID                               : 0
Format                           : MPEG-4 Visual
Format profile                   : Advanced Simple@L5
Format settings, BVOP            : Yes
Format settings, QPel            : No
Format settings, GMC             : No warppoints
Format settings, Matrix          : Default (MPEG)
Muxing mode                      : Packed bitstream
Codec ID                         : XVID
Codec ID/Hint                    : XviD
Duration                         : 1h 24mn
Bit rate                         : 1 032 Kbps
Width                            : 720 pixels
Height                           : 416 pixels
Display aspect ratio             : 16:9
Frame rate                       : 25.000 fps
Color space                      : YUV
Chroma subsampling               : 4:2:0
Bit depth                        : 8 bits
Scan type                        : Progressive
Bits/(Pixel*Frame)               : 0.138
Stream size                      : 621 MiB (88%)
Writing library                  : XviD 1.2.1 (UTC 2008-12-04)

Audio
ID                               : 1
Format                           : MPEG Audio
Format version                   : Version 1
Format profile                   : Layer 3
Codec ID                         : 55
Codec ID/Hint                    : MP3
Duration                         : 1h 24mn
Bit rate mode                    : Constant
Bit rate                         : 128 Kbps
Channel(s)                       : 2 channels
Sampling rate                    : 44.1 KHz
Stream size                      : 77.1 MiB (11%)
Alignment                        : Split accross interleaves
Interleave, duration             : 40 ms (1.00 video frame)
Interleave, preload duration     : 500 ms


SOURCES:

VIDEO: Season Of The Witch.ELEKTRI4KA... thanks matey
AUDIO: Own...

NOTES:

IMAGiNE bringing you another release..........

Here we are with Season Of The Witch..........
Now the video we did our normal things to it of white balance, gamma, sat,
and rgb color adjustments as well as a slight sharpening filter The audio
is our own cam audio It was just a matter of syncing the audio
and muxing it to the video.


Enjoy...


SCREENS:


[center][img]http://www.grinshare.com/img/CQGVJB.png[/img][/center]
[center][img]http://www.grinshare.com/img/N7HJYO.png[/img][/center]
